<svg id="Capa_1" data-name="Capa 1" xmlns="http://www.w3.org/2000/svg" viewBox="0 0 1263.79 148.33"><defs><style>.cls-1{fill:#1d1d1b;}.cls-2{fill:#ffed00;}.cls-2,.cls-3{stroke:#1d1d1b;stroke-miterlimit:10;}.cls-3{fill:#f39200;}.cls-4{fill:#d194c1;}</style></defs><title>Graphic</title><path class="cls-1" d="M311.43,32.92a10.41,10.41,0,0,0-11.79-3.73,11.26,11.26,0,0,0-7.19,10.61,12.7,12.7,0,0,0,6.95,11.09,13.27,13.27,0,0,0,7.16,1.62A8.31,8.31,0,0,0,313,48.29a34.28,34.28,0,0,0,3.45-8.13,44,44,0,0,0,1.7-9.31,2.5,2.5,0,0,0-5,0,37.5,37.5,0,0,1-2.85,11.69C309.71,44,308.94,46,307.75,47s-2.95.61-4.26.22a8.35,8.35,0,0,1-5.85-5.72,6.83,6.83,0,0,1,2.28-6.87,5.2,5.2,0,0,1,4-.91c-.37,0,.06,0,.11,0l.77.19a2.37,2.37,0,0,1,.85.36,4.64,4.64,0,0,1,.77.5l.38.36c.05.06.48.59.27.31a2.58,2.58,0,0,0,3.42.9,2.52,2.52,0,0,0,.9-3.42Z" transform="translate(-14.14 19.67)"/><path class="cls-1" d="M323,29a9.78,9.78,0,0,0-2.44,10.61,10.67,10.67,0,0,0,9.55,6.69,12.45,12.45,0,0,0,10.44-4.83,15.84,15.84,0,0,0,2.87-5.56c.62-2.21.87-4.8-.5-6.79A7.83,7.83,0,0,0,336.6,26c-2.52-.11-4.94.93-7.31.88a2.5,2.5,0,0,0,0,5,34,34,0,0,0,5.85-.8,8.55,8.55,0,0,1,1.92-.05c-.51-.05.34.09.47.12l.43.13c.55.18-.25-.21.22.11.11.08.25.15.37.23-.37-.24-.08-.07,0,0s.42.53.23.23.06.14.08.21c.09.27,0-.43,0,.26,0-.13,0-.31,0,.2a4.08,4.08,0,0,1-.1,1,13.17,13.17,0,0,1-.58,2c0,.09-.25.58-.08.22-.07.15-.14.3-.22.45a10.5,10.5,0,0,1-.61,1.09c-.18.29-.36.56-.56.83.22-.29,0,0-.07.08l-.42.47a9.7,9.7,0,0,1-.8.77l-.37.32c.32-.25-.26.16-.3.19-.28.18-.56.35-.85.51l-.45.22c.36-.17,0,0-.07,0a9.37,9.37,0,0,1-1,.31l-.58.13c-.46.09.11,0-.17,0a9.94,9.94,0,0,1-2,0c.46.06-.47-.12-.62-.15l-.57-.17c-.06,0-.63-.24-.37-.13s-.38-.19-.34-.17l-.41-.24c-.13-.07-.78-.55-.46-.28a9,9,0,0,1-.77-.74s-.35-.42-.17-.19-.21-.32-.25-.39-.14-.26-.22-.39-.1-.2-.14-.3c.08.21.1.24,0,.07A9.58,9.58,0,0,1,325,37c0-.07-.1-.54-.05-.22s0-.37,0-.45a8.34,8.34,0,0,1,0-1.12c0-.39-.09.38,0,0,.06-.22.1-.44.16-.65s.09-.28.13-.42.05-.14-.05.08c0-.1.09-.2.14-.3l.21-.38c0-.07.41-.6.24-.38s.11-.13.16-.17a7.27,7.27,0,0,1,.57-.54,2.53,2.53,0,0,0,0-3.54A2.56,2.56,0,0,0,323,29Z" transform="translate(-14.14 19.67)"/><path class="cls-1" d="M347.91,17.17C341.43,10.52,332.4,6,323,6.11a29.47,29.47,0,0,0-12.92,3.2,27.55,27.55,0,0,0-10,9c-1.09,1.55-2.47,3.7-4.17,4.35a3.72,3.72,0,0,1-2.06.22,1.71,1.71,0,0,1-1-.4c.12.09-.22-.32-.19-.22A2.52,2.52,0,0,0,290,20.44a2.49,2.49,0,0,0-2.17,2.45l.07,9.12a4.39,4.39,0,0,0,0,1c-.08.58,0,.55.32-.07.43-.42.49-.56.17-.44-.21-.15-1.52.34-1.84.41l-4.6,1c-1.44.31-2.45,2.42-1.49,3.68a14.33,14.33,0,0,0,8.91,5.65,2.58,2.58,0,0,0,3.08-1.74,2.53,2.53,0,0,0-1.75-3.08A9.33,9.33,0,0,1,284.76,35l-1.5,3.67c1.84-.39,3.68-.77,5.52-1.17s3.46-1.15,4-3.05.13-4,.12-5.79l-.05-5.76-4.91.67c1.68,4.3,6.74,5.31,10.64,3.35,4.06-2,5.82-6.8,9-9.81,6.36-6,15.81-7.29,23.93-4.64a32,32,0,0,1,12.9,8.25c2.25,2.31,5.78-1.23,3.53-3.54Z" transform="translate(-14.14 19.67)"/><path class="cls-1" d="M296.41,44.92c-3.58-1.15-7.38,1.44-8.3,4.94-1,3.71.82,7.41,3.16,10.19,4,4.71,10.24,6.68,15.85,8.64,1.45.5,2.89,1,4.32,1.58,1.61.65,3.14,1.51,4.8,2,3.92,1.17,7.65-.8,11.13-2.44a80.51,80.51,0,0,0,17.51-11.33,80.33,80.33,0,0,0,15.47-17.58c1.76-2.71-2.57-5.22-4.32-2.53a75.64,75.64,0,0,1-25.72,24.27,74.06,74.06,0,0,1-7.82,3.91c-1.24.53-2.71,1.28-4.11,1.08A17.54,17.54,0,0,1,314.17,66c-4.83-2.06-10.08-3.26-14.69-5.81a14.55,14.55,0,0,1-5.65-5.13c-.68-1.17-1.42-3-.78-4.29a1.72,1.72,0,0,1,2-1.07c3.07,1,4.39-3.84,1.33-4.82Z" transform="translate(-14.14 19.67)"/><path class="cls-1" d="M348,35.41a11.45,11.45,0,0,0-1.58,10.38c.62,1.81,3.64,2.73,4.57.6,2.48-5.7,4.75-11.78,5.48-18,.65-5.54-1-11.5-5.93-14.6-2.74-1.72-5.25,2.6-2.53,4.31,3.63,2.28,4,7.17,3.35,11a66.06,66.06,0,0,1-4.69,14.76l4.57.59a6.81,6.81,0,0,1,1.08-6.53,2.51,2.51,0,0,0-.9-3.42,2.55,2.55,0,0,0-3.42.9Z" transform="translate(-14.14 19.67)"/><path class="cls-1" d="M349.25,16.08c3.35-1.88,6.81,1.31,8.55,3.94a51,51,0,0,1,5.56,11.87c1.11,3.31,3,8.28.72,11.46a6,6,0,0,1-6.87,2,2.58,2.58,0,0,0-3.42.9,2.53,2.53,0,0,0,.9,3.42,10.81,10.81,0,0,0,15.39-10.78c-.26-4.43-1.92-8.85-3.62-12.91s-3.61-8.23-6.62-11.43c-3.33-3.55-8.65-5.3-13.12-2.8-2.81,1.57-.29,5.89,2.53,4.31Z" transform="translate(-14.14 19.67)"/><path class="cls-1" d="M305.56,70.88a83.54,83.54,0,0,0,3.61,33.68c1,3,5.81,1.75,4.82-1.33a79.83,79.83,0,0,1-3.43-32.35,2.51,2.51,0,0,0-2.5-2.5,2.55,2.55,0,0,0-2.5,2.5Z" transform="translate(-14.14 19.67)"/><path class="cls-1" d="M347.85,54.29l15.45,46.52c1,3,5.84,1.73,4.82-1.33L352.67,53c-1-3-5.84-1.73-4.82,1.33Z" transform="translate(-14.14 19.67)"/><path class="cls-1" d="M450.09,47.41a62.8,62.8,0,0,0,49.71-6.47,2.53,2.53,0,0,0,.51-3.93c-17-15-46.83-9.2-56.41,11.55a2.6,2.6,0,0,0,.39,3C462,69.64,489,72,512.91,72a286.9,286.9,0,0,0,86.24-13,290.43,290.43,0,0,0,45.16-18.43c2.44-1.24,1-4.41-1.26-4.66A719.79,719.79,0,0,0,434.6,42.75c-2.31.41-2.18,3.45-.59,4.56C472.11,74.1,522.94,75,567.74,75.56,619.06,76.21,670.34,71.85,721,64c51.3-7.89,102-19.34,152.07-32.87,25-6.77,49.95-14.07,74.74-21.72s49.51-15.41,75-20.09c24.85-4.57,50.71-6,75.49-.22,10.54,2.47,21.51,5.92,29.22,14,8.18,8.52,6.64,19.52-2.94,26.2-9.08,6.32-20.89,9.28-31.7,10.89a130.22,130.22,0,0,1-35.82-.07c-24.17-3.15-47.22-11.54-69.68-20.71S942.6.27,919.05-5.95a170.93,170.93,0,0,0-71.2-3.68c-24.4,3.9-47.81,12.37-70.43,22.1-20,8.62-41.48,17.45-57.54,32.69-13.8,13.09-22.57,32.35-18.78,51.57s20.83,30.14,39.38,31.72c22.68,1.94,43.16-9.79,62.54-19.91A345.06,345.06,0,0,1,908.9,73.24l-3.17-2.41,1.46,35A2.53,2.53,0,0,0,911,108L969.14,78.6l28.71-14.53c9.07-4.59,19.2-11.38,29.82-10.06,8.73,1.08,16,6.86,23.26,11.39a61.32,61.32,0,0,0,24.63,9.31c18.1,2.41,36.35-3,53.1-9.39,22-8.36,43.62-17.9,65.37-26.91L1190.87,36l3.49,36.41c.14,1.44,1.51,3.06,3.17,2.41a227.25,227.25,0,0,0,79.67-53,2.54,2.54,0,0,0-.5-3.93c-19.61-15-46.44-10.9-69.17-7.72a718.06,718.06,0,0,0-86.75,17.67c-28.13,7.57-55.62,17.3-83.76,24.83-29,7.74-58.32,11.62-88.21,13.2S889,68,859.09,68.59c-30.05.62-60.13.81-90.18-.1-59.78-1.82-118.64-9.89-177.45-20.44-57.54-10.31-115-21.93-173.16-27.8q-11-1.11-22-1.92c-3.21-.24-3.2,4.76,0,5C454.82,27.7,512.47,38.7,570.08,49.24S685.3,69.36,743.81,72.45c59.42,3.14,119,1.32,178.44-.54,29.3-.92,58.71-2.36,87.56-7.84,28.29-5.38,55.65-14.55,83.13-23A763.39,763.39,0,0,1,1177.75,20c14.59-2.7,29.28-5,44-6.73,11.92-1.35,24.37-2.12,36.1.94a45.31,45.31,0,0,1,16.29,8l-.5-3.93A221.49,221.49,0,0,1,1196.2,70l3.16,2.41L1195.87,36c-.14-1.42-1.52-3.09-3.17-2.41-19.86,8.23-39.66,16.66-59.61,24.66-17.4,7-36.38,13.69-55.42,11.71-9.87-1-18.31-5.08-26.56-10.37-6.95-4.47-14.06-9.3-22.43-10.48-9.18-1.29-17.62,2.7-25.6,6.72q-14.37,7.23-28.7,14.52l-66,33.37,3.76,2.15-1.46-35a2.54,2.54,0,0,0-3.16-2.41A349.14,349.14,0,0,0,803.3,102.77c-11,5.67-21.84,11.92-33.53,16.15-19,6.86-45.39,8-58.43-10.52-12.44-17.73-4.57-42.25,9.1-56.73,15.5-16.41,37.69-25.44,58-34.24C801.14,7.61,824.68-.89,849.18-4.81c24.66-3.95,49.13-1.9,73.09,4.93C945.7,6.81,968,16.93,990.51,26c22,8.84,44.52,16.47,68.13,19.28,21.53,2.57,46,1.15,65.28-9.69,7.48-4.2,14.09-11,14.28-20,.18-8.6-5.75-15.69-12.31-20.51-8.58-6.31-19.07-9.3-29.36-11.46a161,161,0,0,0-35.65-3.27C1011-18.87,963.06,0,915.76,13.91,866,28.58,815.62,41.54,764.63,51.41S661.82,68,609.81,70c-25.81,1-51.67.82-77.45-.7-22.38-1.32-45-3.8-66.26-11.24A120.25,120.25,0,0,1,436.53,43l-.6,4.57a715.55,715.55,0,0,1,207.12-6.65l-1.26-4.66a284.26,284.26,0,0,1-78.47,26.38c-25.7,4.62-53.63,6.79-79.52,2.34-13.37-2.3-26.33-7.07-36-16.93l.4,3c8.14-17.65,33.81-23.56,48.55-10.53l.51-3.93a57.69,57.69,0,0,1-45.86,6c-3.1-.89-4.42,3.93-1.33,4.82Z" transform="translate(-14.14 19.67)"/><path class="cls-1" d="M128.51,58a102.84,102.84,0,0,0,44.65.56,2.55,2.55,0,0,0,1.75-1.75c1.6-5-4.22-7.53-8.07-8.4-5.16-1.15-10.38-2-15.63-2.68a191.49,191.49,0,0,0-31.76-1.2A265.75,265.75,0,0,0,87.24,48a132,132,0,0,0-14.07,2.76c-3.74,1.06-7.57,2.64-10.36,5.44a12.38,12.38,0,0,0-3.28,11.66A16.89,16.89,0,0,0,67.9,78.31c4.32,2.44,9.28,3.42,14.12,4.23,5.45.91,11,1.48,16.46,1.88,11,.78,22,1.14,32.94,1.52s22.06.57,33.08.25c10.32-.29,20.8-.8,31-2.74,8.92-1.7,18-5,24.75-11.2a31.42,31.42,0,0,0,10.17-21.48,22.62,22.62,0,0,0-2.56-11.36,26.94,26.94,0,0,0-9.72-9.8c-8.45-5.28-18.48-7.57-28.22-9C179.13,19,168.27,18,157.43,17.13c-22.05-1.75-44.16-2.45-66.27-3-11.09-.26-22.18-.57-33.27-.63-5.64,0-11.28,0-16.92.21-4.74.17-9.75.12-14.39,1.26a12.89,12.89,0,0,0-9.7,8.66,44.37,44.37,0,0,0-1.43,7.15c-.42,2.67-.79,5.35-1,8-.86,9.54.1,19.61,5.37,27.86a27.64,27.64,0,0,0,9.08,9c2.77,1.65,5.29-2.67,2.52-4.32-6.7-4-10.4-11.4-11.7-18.88a54.9,54.9,0,0,1-.13-15c.25-2.41.62-4.79,1-7.18a24.31,24.31,0,0,1,1.48-6.19c1.56-3.41,5.35-4.38,8.79-4.74,4.83-.5,9.74-.59,14.6-.7,10.53-.23,21.07,0,31.6.23,20.79.45,41.59.91,62.36,2.08,10.37.58,20.74,1.35,31.08,2.38,9.65,1,19.44,1.86,28.88,4.18a60.6,60.6,0,0,1,13,4.66A27.16,27.16,0,0,1,222,39.57c4.28,5.69,4.14,13.28,1.42,19.62-6.84,15.89-25.5,19.6-41,21C161.81,82,141,81.38,120.31,80.5c-10.28-.43-20.61-.72-30.85-1.92A84.07,84.07,0,0,1,75.28,76c-3.83-1.13-7.64-3-9.75-6.58-1.7-2.85-1.92-6.35.18-9s5.4-3.86,8.46-4.75a114.45,114.45,0,0,1,13-2.62c4.88-.83,9.78-1.55,14.69-2.11,19.74-2.27,39.91-2.39,59.48,1.43A42.38,42.38,0,0,1,168,53.91a5.84,5.84,0,0,1,1.7.92,1.42,1.42,0,0,1,.53.66c-.07-.25,0-.41-.17,0l1.75-1.75a96.57,96.57,0,0,1-42-.56c-3.13-.74-4.46,4.08-1.33,4.83Z" transform="translate(-14.14 19.67)"/><ellipse class="cls-2" cx="174.15" cy="64.26" rx="51" ry="26.29"/><ellipse class="cls-2" cx="575.15" cy="42.04" rx="105" ry="13.76"/><ellipse class="cls-2" cx="874.67" cy="94.27" rx="119.52" ry="12.79"/><ellipse class="cls-3" cx="1185.15" cy="74.55" rx="23.57" ry="32.51"/><polygon class="cls-3" points="429.75 39.95 459.14 24.5 453.53 57.22 477.3 80.4 444.44 85.17 429.75 114.95 415.06 85.17 382.2 80.4 405.97 57.22 400.36 24.5 429.75 39.95"/><path class="cls-4" d="M197.46,56.13a24.49,24.49,0,0,1-7.2,13.57,18.47,18.47,0,0,1-13,5.07q-6.8,0-10.2-3.8t-3.4-11.41a36.07,36.07,0,0,1,3.39-14.75,35,35,0,0,1,8.69-12.26,11.17,11.17,0,0,1,7.5-3.13,19.05,19.05,0,0,1,6.63,1.66c3.36,1.33,5,2.79,5,4.4a2.89,2.89,0,0,1-.82,2,2.65,2.65,0,0,1-2,.88,3.7,3.7,0,0,1-1.71-.69q-4.23-2.56-7.13-2.57a6.49,6.49,0,0,0-4.34,2.16,32.74,32.74,0,0,0-3.27,3.92,29.83,29.83,0,0,0-6.38,18.36q0,5.2,1.6,7.27,1.74,2.27,6.41,2.27A12.81,12.81,0,0,0,185.9,66a17.75,17.75,0,0,0,5.37-9.49,35,35,0,0,0-13.14,3,2.89,2.89,0,0,1-1.24.3,2.54,2.54,0,0,1-2-.94,2.92,2.92,0,0,1-.75-2,2.76,2.76,0,0,1,1.47-2.43q6-3.64,20.6-3.65a2.71,2.71,0,0,1,2,.8,2.77,2.77,0,0,1,.8,2A2.66,2.66,0,0,1,197.46,56.13Z" transform="translate(-14.14 19.67)"/><path class="cls-4" d="M231.14,73.17a2.77,2.77,0,0,1-2-.89,46.7,46.7,0,0,0-20.36-12.17l.23,5.42.13,5.45a2.82,2.82,0,0,1-.78,2,2.8,2.8,0,0,1-4,0,2.82,2.82,0,0,1-.79-2c0-1.46-.06-3.63-.2-6.51s-.21-5.06-.21-6.51a75.27,75.27,0,0,1,.55-7.58,75.7,75.7,0,0,0,.56-7.55q0-1.41-.27-4.17c-.17-1.85-.26-3.24-.26-4.18a4.49,4.49,0,0,1,.89-2.76,3.06,3.06,0,0,1,2.9-1.33l6.66.53a18.32,18.32,0,0,1,6.39,1.85q11.19,5.94,11.2,14.51A9.53,9.53,0,0,1,228,54.72a20.74,20.74,0,0,1-7.66,4q8.61,4.6,12.86,9.73a2.94,2.94,0,0,1,.72,1.88,2.8,2.8,0,0,1-.84,2A2.72,2.72,0,0,1,231.14,73.17ZM213.53,36.61l-4.1-.33.28,3.35c.13,1.36.19,2.48.19,3.34a52,52,0,0,1-.36,5.5L209,54l1.21,0,1.23,0q7,0,10.56-1.88a12.06,12.06,0,0,0,2.87-2.24,4.29,4.29,0,0,0,1.47-2.63c0-2.56-1.46-4.94-4.37-7.16A16.85,16.85,0,0,0,213.53,36.61Z" transform="translate(-14.14 19.67)"/><path class="cls-4" d="M270.15,73.69c-1.69,0-3.17-2.17-4.42-6.52-.48-1.66-1.08-4.57-1.8-8.71q-2.82.38-7.38,1.38l-7.36,1.52Q247.81,65,244.47,72a2.7,2.7,0,0,1-2.41,1.55,2.86,2.86,0,0,1-2-.8,2.61,2.61,0,0,1-.87-2q0-1.32,4.18-10.09a2.91,2.91,0,0,1-.47-1.66c0-1.49.9-2.45,2.71-2.87q3.15-5.92,8-13.61Q260.15,32,261.75,32c1.45,0,2.45,1,3,3.05l1.74,9.29,4.12,19.21,1.58,4.37a11.23,11.23,0,0,1,.8,3,2.62,2.62,0,0,1-.85,2A2.84,2.84,0,0,1,270.15,73.69Zm-9.76-31.6-7.91,12.74q3.35-.86,10.15-2.07Z" transform="translate(-14.14 19.67)"/><path class="cls-4" d="M307.59,36.53a2.79,2.79,0,0,1-1-.22A26.62,26.62,0,0,0,297.47,35a39.24,39.24,0,0,0-4.27.26c-1.63.17-3.46.45-5.49.81l-.06,12a34.71,34.71,0,0,1,8-1.41,79.31,79.31,0,0,1,8.82.5,2.56,2.56,0,0,1,2.6,2.82,2.84,2.84,0,0,1-.8,2.06,2.68,2.68,0,0,1-2,.81c-1,0-2.4-.08-4.31-.25s-3.36-.25-4.32-.25A43.9,43.9,0,0,0,287.54,54l-.25,19a2.81,2.81,0,0,1-.77,2,2.6,2.6,0,0,1-2,.81,2.65,2.65,0,0,1-2-.81,2.83,2.83,0,0,1-.79-2q0-5.44.21-16.35t.21-16.36c0-.81,0-2,0-3.66s-.05-2.85-.05-3.67a2.93,2.93,0,0,1,.76-2,2.58,2.58,0,0,1,2-.83,2.74,2.74,0,0,1,1.63.5c2.29-.41,4.34-.71,6.17-.9a44.51,44.51,0,0,1,4.81-.29,33.73,33.73,0,0,1,7.27.91c3.71.85,5.56,1.95,5.56,3.32a3,3,0,0,1-.72,2A2.47,2.47,0,0,1,307.59,36.53Z" transform="translate(-14.14 19.67)"/><path class="cls-4" d="M337.84,38.41a34.61,34.61,0,0,1-4.45-.36l-4.45-.58q-.65,8-.64,15.37c0,1.29,0,2.89.11,4.79s.11,3.49.11,4.78c0,1.73-.06,3.31-.19,4.73L337,67a2.63,2.63,0,0,1,1.95.81,3,3,0,0,1,0,4,2.64,2.64,0,0,1-1.95.82c-1,0-2.58,0-4.65.06s-3.61.07-4.64.07a43,43,0,0,0-5.46.51,41.93,41.93,0,0,1-5.49.52,2.6,2.6,0,0,1-1.95-.82,2.75,2.75,0,0,1-.79-2,2.79,2.79,0,0,1,.79-2,2.54,2.54,0,0,1,1.95-.83,50.35,50.35,0,0,0,5.94-.58,41.11,41.11,0,0,0,.28-5.12c0-1.27-.06-2.82-.18-4.66s-.18-3.37-.18-4.63q0-6.39.77-16l-3.59.11-3.6.08a2.73,2.73,0,0,1-2-.8,2.79,2.79,0,0,1-.8-2,2.55,2.55,0,0,1,2.6-2.82c1.49-.14,4.29-.22,8.38-.22a101,101,0,0,1,13.8,1.19,2.65,2.65,0,0,1,2.46,3,2.55,2.55,0,0,1-.94,2.07A3,3,0,0,1,337.84,38.41Z" transform="translate(-14.14 19.67)"/><path class="cls-4" d="M372.84,41.84a2.85,2.85,0,0,1-2.65-2.08,4.83,4.83,0,0,0-1.44-2.15,7.76,7.76,0,0,0-2.87-.31c-2.68,0-5.64,2.05-8.91,6.14q-6.63,8.24-6.63,15.62a8.9,8.9,0,0,0,2.29,6.14,7.32,7.32,0,0,0,5.67,2.66A12.45,12.45,0,0,0,364,66.39a42.63,42.63,0,0,0,4.92-3.26A4.81,4.81,0,0,1,371.32,62a2.54,2.54,0,0,1,2,.9,2.89,2.89,0,0,1,.81,2,2.85,2.85,0,0,1-1.06,2.18q-7.29,6.48-14.76,6.47a12.52,12.52,0,0,1-9.68-4.39,14.62,14.62,0,0,1-3.81-10.07q0-9.37,7.85-19.21,6.55-8.22,13.22-8.21a22.18,22.18,0,0,1,2.43.12,9.71,9.71,0,0,1,1.91.4,2.92,2.92,0,0,1,2.51-1.41c1.27,0,2.08.84,2.41,2.52a29.32,29.32,0,0,1,.44,5.5,3.33,3.33,0,0,1-.61,2A2.44,2.44,0,0,1,372.84,41.84Z" transform="translate(-14.14 19.67)"/><path class="cls-4" d="M423.11,72.67q-4.29,2.92-12.3,2.93a19.38,19.38,0,0,1-4.62-.64,13,13,0,0,1-4.7-1.93h-.28a2.68,2.68,0,0,1-2-.83,2.83,2.83,0,0,1-.8-2q0-2.91.26-8.7c.18-3.86.26-6.76.26-8.69q0-3.24-.12-9.67t-.12-9.66a3.57,3.57,0,0,1,1.16-2.38,3.25,3.25,0,0,1,2.32-1.24,19.52,19.52,0,0,1,4.42,1.85q4.26,2.07,4.93,2.3a34.13,34.13,0,0,1,13.38,8.23q6.49,6.56,6.5,14.41a19.68,19.68,0,0,1-2.23,9.07A18.51,18.51,0,0,1,423.11,72.67ZM417.3,43.41q-2.82-1.84-13-6.36l.14,8L404.5,53l-.44,15.1a3.57,3.57,0,0,1,.58.36A10.78,10.78,0,0,0,410.78,70q6.3,0,9.18-1.93a13.09,13.09,0,0,0,4.27-4.91,13.87,13.87,0,0,0,1.59-6.43Q425.82,49,417.3,43.41Z" transform="translate(-14.14 19.67)"/><path class="cls-4" d="M465.06,35.64a3.1,3.1,0,0,1-.86-.13,32.79,32.79,0,0,0-9-1.33,33.18,33.18,0,0,0-4.94.41,49.77,49.77,0,0,0-5.78,1.28,23,23,0,0,1,.25,2.87q0,3.84-.47,10.56l12.11-1.16c3.55-.37,5.74-.55,6.55-.55a2.89,2.89,0,0,1,2,.77,2.69,2.69,0,0,1,.83,2.08,2.56,2.56,0,0,1-2.54,2.82l-6.58.58L443.88,55q-.12,2-.18,3.72c-.05,1.17-.07,2.26-.07,3.27,0,4.08.29,6.47.88,7.19.44.52,1.89.78,4.34.78,1.15,0,2.86,0,5.16-.1s4-.1,5.18-.1a10.67,10.67,0,0,0,1.63-.18,10.86,10.86,0,0,1,1.61-.18c1.95,0,2.93,1,2.93,2.88A2.59,2.59,0,0,1,463,75.07a72.84,72.84,0,0,1-11.25.53q-8.58,0-11-2.27Q438.1,70.87,438.1,62c0-1.18,0-2.47.08-3.87s.13-2.91.22-4.53a3.14,3.14,0,0,1-.3-1.36,2.86,2.86,0,0,1,.52-1.68q.56-8,.56-11.81a24.63,24.63,0,0,0-.28-3,22.74,22.74,0,0,1-.28-3q0-3.29,2.77-3.29a2.8,2.8,0,0,1,2,.8,56.36,56.36,0,0,1,6.26-1.32,36.74,36.74,0,0,1,5.54-.45,29.46,29.46,0,0,1,10.73,1.61,2.65,2.65,0,0,1,1.85,2.65,2.94,2.94,0,0,1-.71,2A2.51,2.51,0,0,1,465.06,35.64Z" transform="translate(-14.14 19.67)"/><path class="cls-4" d="M473.29,66a2.39,2.39,0,0,1,.79-1.9,2.79,2.79,0,0,1,4.39.82A10.62,10.62,0,0,0,481,67.75c1.57,1,3.84,1.54,6.83,1.54a17.36,17.36,0,0,0,8-1.85c3.14-1.58,4.7-3.79,4.7-6.61,0-2.32-1.31-4.15-4-5.5a18.94,18.94,0,0,0-8.27-1.88,16.08,16.08,0,0,1-7.43-1.91,7,7,0,0,1-3.93-6.41q0-4.92,5.58-9a18.68,18.68,0,0,1,11-3.84,23.39,23.39,0,0,1,6.05.91c3,.79,4.48,1.81,4.48,3a2.18,2.18,0,0,1-2.49,2.44,21.76,21.76,0,0,1-3.87-.6,21.21,21.21,0,0,0-4.28-.57,13,13,0,0,0-7.33,2.13,6.18,6.18,0,0,0-3.1,5.17c0,1.53,1.37,2.61,4.09,3.24a44.22,44.22,0,0,0,5.89.66c4.23.32,7.52,1.64,9.9,4a10.56,10.56,0,0,1,3.27,7.83q0,6.59-6.09,10.51a22.17,22.17,0,0,1-12.25,3.4,21.88,21.88,0,0,1-9.26-1.94C475.09,70.92,473.35,68.74,473.29,66Z" transform="translate(-14.14 19.67)"/><path class="cls-4" d="M535.31,38.41a34.61,34.61,0,0,1-4.45-.36l-4.45-.58q-.63,8-.64,15.37c0,1.29,0,2.89.11,4.79s.12,3.49.12,4.78c0,1.73-.07,3.31-.2,4.73l8.71-.11a2.6,2.6,0,0,1,2,.81,3,3,0,0,1,0,4,2.6,2.6,0,0,1-2,.82c-1,0-2.58,0-4.64.06s-3.62.07-4.65.07a43,43,0,0,0-5.46.51,41.63,41.63,0,0,1-5.49.52,2.64,2.64,0,0,1-1.95-.82,2.79,2.79,0,0,1-.79-2,2.83,2.83,0,0,1,.79-2,2.57,2.57,0,0,1,1.95-.83,50.66,50.66,0,0,0,6-.58,43.29,43.29,0,0,0,.27-5.12c0-1.27-.06-2.82-.18-4.66s-.18-3.37-.18-4.63q0-6.39.78-16l-3.6.11-3.59.08a2.71,2.71,0,0,1-2-.8,2.75,2.75,0,0,1-.8-2,2.55,2.55,0,0,1,2.6-2.82c1.49-.14,4.28-.22,8.37-.22a101,101,0,0,1,13.8,1.19,2.65,2.65,0,0,1,2.46,3,2.52,2.52,0,0,1-.94,2.07A3,3,0,0,1,535.31,38.41Z" transform="translate(-14.14 19.67)"/><path class="cls-4" d="M582.4,66.72a36.88,36.88,0,0,1-.44,4.43c-.3,1.86-1.28,2.79-3,2.79-1,0-2.22-.66-3.62-2Q564.13,61.3,549.55,41.23l-.14,6.28-.08,6.3q0,2.3.1,6.89c.06,3,.1,5.36.1,6.91q0,7.44-2.88,7.44a3.13,3.13,0,0,1-2.41-1,2.92,2.92,0,0,1-.8-2q0-1.16.18-3.51T543.8,65c0-1.14,0-2.85.11-5.13s.11-4,.11-5.13,0-3-.08-5.52-.08-4.3-.08-5.51-.11-2.89-.33-5.19-.34-4-.34-5.18a3.16,3.16,0,0,1,1.1-2.32A3.46,3.46,0,0,1,546.76,30c1,0,2.18,1.07,3.62,3.2q6.89,10.32,12.39,17.15a156.9,156.9,0,0,0,14.38,15.48q.08-1.19,0-3.51l-.09-3.49a155.56,155.56,0,0,0-.94-19.32,28.73,28.73,0,0,0-.74-2.91,11.18,11.18,0,0,1-.56-2.93q0-3.19,2.94-3.2,4.8,0,4.81,17.94c0,2,0,5.1-.09,9.17S582.4,64.68,582.4,66.72Z" transform="translate(-14.14 19.67)"/><path class="cls-4" d="M620.86,56.13a24.49,24.49,0,0,1-7.2,13.57,18.46,18.46,0,0,1-12.95,5.07q-6.81,0-10.21-3.8t-3.4-11.41a36.07,36.07,0,0,1,3.39-14.75,35.13,35.13,0,0,1,8.69-12.26,11.17,11.17,0,0,1,7.5-3.13,19.05,19.05,0,0,1,6.63,1.66c3.36,1.33,5,2.79,5,4.4a2.9,2.9,0,0,1-.83,2,2.64,2.64,0,0,1-2,.88,3.69,3.69,0,0,1-1.72-.69q-4.23-2.56-7.13-2.57a6.49,6.49,0,0,0-4.34,2.16,32.74,32.74,0,0,0-3.27,3.92,29.89,29.89,0,0,0-6.38,18.36q0,5.2,1.6,7.27,1.74,2.27,6.42,2.27A12.8,12.8,0,0,0,609.3,66a17.75,17.75,0,0,0,5.37-9.49,35,35,0,0,0-13.14,3,2.86,2.86,0,0,1-1.24.3,2.54,2.54,0,0,1-2-.94,2.91,2.91,0,0,1-.74-2A2.75,2.75,0,0,1,599,54.39q6-3.64,20.6-3.65a2.73,2.73,0,0,1,2.79,2.82A2.65,2.65,0,0,1,620.86,56.13Z" transform="translate(-14.14 19.67)"/><path class="cls-4" d="M666.79,38.41a34.48,34.48,0,0,1-4.45-.36l-4.46-.58q-.63,8-.63,15.37c0,1.29,0,2.89.11,4.79s.11,3.49.11,4.78c0,1.73-.06,3.31-.19,4.73L666,67a2.63,2.63,0,0,1,2,.81,3,3,0,0,1,0,4,2.64,2.64,0,0,1-2,.82c-1,0-2.58,0-4.65.06s-3.61.07-4.64.07a43,43,0,0,0-5.46.51,41.93,41.93,0,0,1-5.49.52,2.6,2.6,0,0,1-2-.82,2.75,2.75,0,0,1-.79-2,2.79,2.79,0,0,1,.79-2,2.54,2.54,0,0,1,2-.83,50.54,50.54,0,0,0,5.94-.58,41.11,41.11,0,0,0,.28-5.12c0-1.27-.06-2.82-.18-4.66s-.18-3.37-.18-4.63q0-6.39.77-16l-3.59.11-3.6.08a2.73,2.73,0,0,1-2-.8,2.79,2.79,0,0,1-.8-2,2.55,2.55,0,0,1,2.6-2.82c1.49-.14,4.29-.22,8.38-.22a101,101,0,0,1,13.8,1.19,2.65,2.65,0,0,1,2.46,3,2.55,2.55,0,0,1-.94,2.07A3,3,0,0,1,666.79,38.41Z" transform="translate(-14.14 19.67)"/><path class="cls-4" d="M675,66a2.36,2.36,0,0,1,.79-1.9,2.79,2.79,0,0,1,4.38.82,10.62,10.62,0,0,0,2.52,2.85c1.57,1,3.84,1.54,6.83,1.54a17.36,17.36,0,0,0,8-1.85c3.14-1.58,4.7-3.79,4.7-6.61q0-3.48-3.95-5.5a18.94,18.94,0,0,0-8.27-1.88,16.16,16.16,0,0,1-7.44-1.91,7,7,0,0,1-3.92-6.41q0-4.92,5.58-9a18.68,18.68,0,0,1,11-3.84,23.4,23.4,0,0,1,6.06.91c3,.79,4.48,1.81,4.48,3a2.18,2.18,0,0,1-2.49,2.44,21.5,21.5,0,0,1-3.87-.6,21.21,21.21,0,0,0-4.29-.57,13,13,0,0,0-7.32,2.13,6.18,6.18,0,0,0-3.1,5.17q0,2.3,4.09,3.24a44.22,44.22,0,0,0,5.89.66q6.33.48,9.9,4a10.55,10.55,0,0,1,3.26,7.83q0,6.59-6.08,10.51a22.17,22.17,0,0,1-12.25,3.4,21.88,21.88,0,0,1-9.26-1.94C676.77,70.92,675,68.74,675,66Z" transform="translate(-14.14 19.67)"/><path class="cls-4" d="M772.38,75.16a2.86,2.86,0,0,1-2.46-1.55,14.79,14.79,0,0,1-1.49-4.43l-1-4.75q-1.12-4.43-3.59-19.52l-5.53,16.67-1.63,5.25A30.43,30.43,0,0,1,754.6,72a3.49,3.49,0,0,1-3.12,2.1,2.84,2.84,0,0,1-2.57-1.77,14.67,14.67,0,0,1-1.11-3l-.8-3.07q-2.79-9.75-4.92-20.9l-1,4.95-3.56,14.6a59.63,59.63,0,0,1-1.39,7.6,2.85,2.85,0,0,1-2.73,2.16,2.64,2.64,0,0,1-2.16-1,3.08,3.08,0,0,1-.69-2,42.54,42.54,0,0,1,1.91-11.33l3-11.14,1.6-8.71c.81-4.08,1.67-6.74,2.57-8a3.27,3.27,0,0,1,2.74-1.6,2.86,2.86,0,0,1,2.68,2q1.08,2.46,2.32,10A162.36,162.36,0,0,0,752,62.63a207.22,207.22,0,0,0,7.08-22.17l.82-4a15.16,15.16,0,0,1,1.3-3.93,3.29,3.29,0,0,1,3-2q2.39,0,3.62,4.59a54.68,54.68,0,0,1,1.08,6.52,160.57,160.57,0,0,0,4.07,21.35l1.35,4.75a27.15,27.15,0,0,1,1,4.7,2.54,2.54,0,0,1-.9,2A2.93,2.93,0,0,1,772.38,75.16Z" transform="translate(-14.14 19.67)"/><path class="cls-4" d="M809.85,37.5c-.44.7-1,1.78-1.77,3.23l-4.76,11.75q-2.76,6.62-5.2,11.56l-3.45,6.17-1.47,3a2.76,2.76,0,0,1-2.46,1.61,2.83,2.83,0,0,1-2-.81,2.56,2.56,0,0,1-.89-2c0-.62.87-2.59,2.6-5.89l3.4-6.22q-4.95-6.37-6.41-10.06a42.56,42.56,0,0,0-4.15-7.49c-2.65-4-4.21-6.39-4.67-7.22a3,3,0,0,1-.42-1.49,2.62,2.62,0,0,1,.88-2,2.8,2.8,0,0,1,2-.81,2.69,2.69,0,0,1,2.27,1.3l2.21,3.42q2.94,4.35,3.87,5.92a44.15,44.15,0,0,1,3.24,6.3,30.53,30.53,0,0,0,3.9,6.28l6.33-15.43q1.08-1.91,3-5.89a2.67,2.67,0,0,1,2.58-1.88,2.88,2.88,0,0,1,2,.78,2.53,2.53,0,0,1,.87,2A9.43,9.43,0,0,1,809.85,37.5Z" transform="translate(-14.14 19.67)"/><path class="cls-4" d="M841.76,56.63a32.59,32.59,0,0,1-3.38-.36q-.21,4.17-.22,14.63a2.58,2.58,0,0,1-.72,1.86,2.36,2.36,0,0,1-1.79.76,2.4,2.4,0,0,1-1.83-.76,2.58,2.58,0,0,1-.72-1.86V62.77q0-4.07.5-11.45.55-8,.61-11.45V36.06a17.08,17.08,0,0,1,.33-4c.42-1.62,1.33-2.33,2.71-2.1a11.83,11.83,0,0,1,2.51-.42c1.09-.09,2.43-.14,4-.14a15.16,15.16,0,0,1,9.49,3.46q4.86,3.81,4.86,9.18A13.15,13.15,0,0,1,852.93,53,17.55,17.55,0,0,1,841.76,56.63Zm1.38-22c-.81,0-1.54,0-2.17,0a14.48,14.48,0,0,0-1.62.17L839.29,40l-.58,11,3,.36A12.78,12.78,0,0,0,849.58,49a8.19,8.19,0,0,0,3.48-6.94c0-2.07-1.1-3.84-3.31-5.34A11.73,11.73,0,0,0,843.14,34.68Z" transform="translate(-14.14 19.67)"/><path class="cls-4" d="M894.37,73.69c-1.69,0-3.17-2.17-4.42-6.52-.48-1.66-1.08-4.57-1.8-8.71q-2.82.38-7.38,1.38l-7.36,1.52Q872,65,868.69,72a2.7,2.7,0,0,1-2.41,1.55,2.86,2.86,0,0,1-2-.8,2.61,2.61,0,0,1-.87-2q0-1.32,4.18-10.09a2.91,2.91,0,0,1-.47-1.66c0-1.49.9-2.45,2.71-2.87q3.15-5.92,8-13.61Q884.37,32,886,32c1.45,0,2.45,1,3,3.05l1.75,9.29,4.12,19.21,1.57,4.37a11.23,11.23,0,0,1,.8,3,2.62,2.62,0,0,1-.85,2A2.84,2.84,0,0,1,894.37,73.69Zm-9.76-31.6-7.9,12.74q3.35-.86,10.14-2.07Z" transform="translate(-14.14 19.67)"/><path class="cls-4" d="M904.94,66a2.36,2.36,0,0,1,.78-1.9,2.79,2.79,0,0,1,4.39.82,10.62,10.62,0,0,0,2.51,2.85q2.36,1.55,6.83,1.54a17.36,17.36,0,0,0,8-1.85c3.14-1.58,4.71-3.79,4.71-6.61q0-3.48-4-5.5a18.9,18.9,0,0,0-8.27-1.88,16.08,16.08,0,0,1-7.43-1.91,7,7,0,0,1-3.93-6.41q0-4.92,5.59-9a18.63,18.63,0,0,1,11-3.84,23.33,23.33,0,0,1,6.05.91c3,.79,4.48,1.81,4.48,3a2.18,2.18,0,0,1-2.49,2.44,21.76,21.76,0,0,1-3.87-.6,21.21,21.21,0,0,0-4.28-.57,13,13,0,0,0-7.33,2.13c-2.06,1.42-3.1,3.15-3.1,5.17q0,2.3,4.1,3.24a43.78,43.78,0,0,0,5.88.66q6.35.48,9.9,4a10.56,10.56,0,0,1,3.27,7.83q0,6.59-6.09,10.51a22.17,22.17,0,0,1-12.25,3.4,21.88,21.88,0,0,1-9.26-1.94C906.73,70.92,905,68.74,904.94,66Z" transform="translate(-14.14 19.67)"/><path class="cls-4" d="M967,38.41a34.61,34.61,0,0,1-4.45-.36l-4.45-.58q-.63,8-.64,15.37c0,1.29,0,2.89.12,4.79s.11,3.49.11,4.78c0,1.73-.07,3.31-.2,4.73l8.71-.11a2.6,2.6,0,0,1,2,.81,3,3,0,0,1,0,4,2.6,2.6,0,0,1-2,.82c-1,0-2.58,0-4.64.06s-3.62.07-4.65.07a43.13,43.13,0,0,0-5.46.51,41.63,41.63,0,0,1-5.49.52A2.64,2.64,0,0,1,944,73a2.78,2.78,0,0,1-.78-2,2.82,2.82,0,0,1,.78-2,2.57,2.57,0,0,1,1.95-.83,50.66,50.66,0,0,0,6-.58,43.29,43.29,0,0,0,.27-5.12c0-1.27-.06-2.82-.18-4.66s-.18-3.37-.18-4.63q0-6.39.78-16l-3.6.11-3.59.08a2.71,2.71,0,0,1-2-.8,2.75,2.75,0,0,1-.8-2,2.55,2.55,0,0,1,2.6-2.82c1.49-.14,4.28-.22,8.37-.22a101,101,0,0,1,13.8,1.19,2.65,2.65,0,0,1,2.46,3,2.52,2.52,0,0,1-.94,2.07A3,3,0,0,1,967,38.41Z" transform="translate(-14.14 19.67)"/><path class="cls-4" d="M993.61,74.55a19.52,19.52,0,0,1-13.22-4.68,16.18,16.18,0,0,1-5.75-12.82,29,29,0,0,1,5.67-17.4Q986.64,31,996.1,31q9.09,0,13.52,4.09,4.62,4.26,4.62,13.44a30.12,30.12,0,0,1-5.2,17.25Q1003.07,74.56,993.61,74.55Zm2.49-37.91q-6.78,0-11.48,6.75a23.3,23.3,0,0,0-4.34,13.66,10.84,10.84,0,0,0,4,8.68,14.14,14.14,0,0,0,9.37,3.15q6.72,0,11.09-6.77a24.69,24.69,0,0,0,3.89-13.61q0-6.6-3-9.29T996.1,36.64Z" transform="translate(-14.14 19.67)"/><path class="cls-4" d="M1059.25,66.72a36.88,36.88,0,0,1-.44,4.43c-.3,1.86-1.28,2.79-3,2.79-1,0-2.22-.66-3.62-2Q1041,61.3,1026.4,41.23l-.14,6.28-.08,6.3q0,2.3.1,6.89c.06,3,.09,5.36.09,6.91q0,7.44-2.87,7.44a3.12,3.12,0,0,1-2.41-1,2.92,2.92,0,0,1-.8-2q0-1.16.18-3.51t.18-3.51c0-1.14,0-2.85.11-5.13s.11-4,.11-5.13,0-3-.08-5.52-.08-4.3-.08-5.51-.12-2.89-.34-5.19-.33-4-.33-5.18a3.19,3.19,0,0,1,1.09-2.32,3.5,3.5,0,0,1,2.48-1.05c1,0,2.18,1.07,3.62,3.2q6.88,10.32,12.39,17.15A156.9,156.9,0,0,0,1054,65.81q.07-1.19,0-3.51l-.09-3.49a155.56,155.56,0,0,0-.94-19.32,28.73,28.73,0,0,0-.74-2.91,11.18,11.18,0,0,1-.56-2.93q0-3.19,2.93-3.2,4.82,0,4.81,17.94c0,2,0,5.1-.08,9.17S1059.25,64.68,1059.25,66.72Z" transform="translate(-14.14 19.67)"/></svg>